<svg width="218" height="153" viewBox="0 0 218 153" fill="none" xmlns="http://www.w3.org/2000/svg">
<path d="M140.66 37.3848L119.973 134.71C119.765 135.689 120.743 135.896 122.211 136.208L159.38 144.109C172.585 146.916 181.45 143.688 182.282 139.776L201.721 48.319C201.836 47.7788 201.505 47.2506 200.964 47.1358L143.73 34.9701C142.165 34.6374 140.868 36.4066 140.66 37.3848Z" fill="white"/>
<path d="M137.655 99.6199L137.031 102.554C136.997 102.717 136.732 103.002 135.949 102.835L133.504 102.316C132.33 102.066 131.829 102.982 131.725 103.471L130.997 106.895C130.831 107.677 131.767 108.081 132.256 108.185L134.213 108.6C135.386 108.85 135.541 109.564 135.472 109.89L134.848 112.825C134.682 113.607 135.618 114.011 136.107 114.115L139.042 114.739C140.216 114.988 140.648 114.398 140.717 114.072L141.341 111.138C141.507 110.355 142.201 110.298 142.527 110.368L144.972 110.887C146.146 111.137 146.578 110.547 146.647 110.221L147.375 106.798C147.625 105.624 147.035 105.192 146.709 105.123L144.263 104.603C143.09 104.353 142.865 103.965 142.9 103.802L143.42 101.356C143.669 100.183 142.754 99.6813 142.265 99.5773L139.33 98.9536C138.156 98.7041 137.724 99.2938 137.655 99.6199Z" fill="black"/>
<path d="M194.097 54.3659L146.657 44.2822C144.701 43.8664 143.935 45.0666 143.796 45.7187L136.519 79.9539C135.854 83.084 137.644 84.2823 138.622 84.4902L179.215 93.1186C186.258 94.6155 189.127 89.773 189.682 87.1646L196.127 56.842C196.46 55.277 194.913 54.5392 194.097 54.3659Z" fill="black"/>
<path d="M183.276 57.1776L152.953 50.7324C152.683 50.675 152.418 50.8474 152.36 51.1175L146.643 78.0165C146.298 79.6372 147.333 81.2302 148.954 81.5747L176.831 87.5002C178.451 87.8447 180.044 86.8101 180.389 85.1895L185.587 60.7358C185.931 59.1152 184.897 57.5221 183.276 57.1776Z" fill="white"/>
<circle cx="170.227" cy="114.722" r="4" transform="rotate(12 170.227 114.722)" fill="black"/>
<circle cx="181.048" cy="111.91" r="4" transform="rotate(12 181.048 111.91)" fill="black"/>
<path d="M169.416 133.132L169.416 134.331C169.416 134.618 169.492 134.839 169.739 134.983C169.937 135.099 170.249 135.171 170.468 135.1C175.31 133.542 184.427 130.549 184.705 130.225C185.061 129.809 185.416 128.563 185.416 127.732C185.417 127.067 184.705 127.178 184.35 127.316C180.083 128.701 171.336 131.553 170.483 131.886C169.63 132.218 169.416 132.855 169.416 133.132Z" fill="black"/>
<path d="M150.416 127.572C150.417 129.223 151.184 132.969 151.675 135.823C151.758 136.307 152.161 136.564 152.596 136.337C154.055 135.577 157.003 133.755 158.11 133.755C159.407 133.755 161.899 135.924 163.719 137.749C164.302 138.335 165.322 138.039 165.383 137.215C165.537 135.128 165.105 134.067 165.105 131.21L165.106 128.993C165.106 128.212 164.249 127.731 163.578 128.13C161.513 129.357 158.899 130.846 158.46 130.846C157.761 130.846 152.515 128.3 151.466 127.572C150.627 126.991 150.417 127.33 150.416 127.572Z" fill="black"/>
<path fill-rule="evenodd" clip-rule="evenodd" d="M195.811 46.4933C196.006 39.5631 200.278 24.969 215.97 16.9178C216.672 16.5577 217.464 17.142 217.333 17.9198C215.771 27.1661 210.786 43.9645 200.9 50.2157C200.775 50.2952 200.636 50.3412 200.495 50.3556L200.92 48.357L196.316 47.3786L196.181 47.2711C195.942 47.0811 195.802 46.7979 195.811 46.4933ZM190.085 45.7254C181.426 41.4546 165.443 28.5598 168.218 10.0611C168.323 9.36448 169.106 9.02464 169.675 9.44076C178.634 16.0006 189.655 32.5613 194.612 45.1753C194.898 45.9045 194.253 46.6409 193.487 46.478L190.313 45.8036C190.233 45.7866 190.158 45.7615 190.085 45.7254Z" fill="white"/>
<path d="M13.4808 44.9685C15.0587 42.9522 17.2503 40.0593 22.7731 40.0593C31.4517 40.0593 36.0979 47.7737 36.0979 56.4524C36.0979 66.6213 30.3121 73.459 22.3348 73.459C16.9873 73.459 14.6204 70.4785 13.4808 69.0759V80.1214H0.418945V40.8483H13.4808V44.9685ZM13.4808 63.6407C14.2697 64.1667 15.234 64.9557 16.9873 64.9557C19.5295 64.9557 22.5101 62.9394 22.5101 56.803C22.5101 52.5075 21.1075 48.738 17.075 48.738C15.6724 48.738 14.7081 49.264 13.4808 49.9653V63.6407Z" fill="white"/>
<path d="M38.4648 32.6956H51.6143V72.0564H38.4648V32.6956Z" fill="white"/>
<path d="M87.2056 72.0563H74.0561V67.9362C72.4781 70.0401 70.1112 73.0206 64.4131 73.0206C57.8384 73.0206 54.0688 68.3745 54.0688 62.764C54.0688 55.8386 59.5916 51.9814 66.4294 51.9814C69.8482 51.9814 72.3028 52.7704 74.0561 53.3841C74.0561 51.5431 73.9684 49.0009 71.7768 47.16C70.1989 45.845 68.4456 45.7573 67.569 45.7573C63.5365 45.7573 61.2572 48.1243 59.5916 49.7899L55.7344 46.5463C58.5397 43.3904 62.5722 39.2703 71.7768 39.2703C78.0009 39.2703 80.8938 41.1112 81.9458 41.8125C87.1179 45.1437 87.2056 49.7899 87.2056 53.2087V72.0563ZM74.1437 58.7315C73.0918 58.4685 72.3905 58.2932 71.2509 58.2932C67.7443 58.2932 66.78 60.5724 66.78 62.1504C66.78 63.9036 68.0073 65.4816 70.1112 65.4816C71.9522 65.4816 73.0918 64.4296 74.1437 63.29V58.7315Z" fill="white"/>
<path d="M86.5044 40.8483H100.355C102.108 46.5464 104.125 52.8581 105.177 58.0303C106.667 52.6828 107.018 51.5432 110.787 40.8483H121.219L109.034 69.3388C107.368 73.0207 105.177 77.9298 100.618 80.8227C96.0597 83.7156 90.5369 83.7156 86.5044 83.7156V78.8065C93.2545 78.3681 95.5337 74.4233 98.3389 69.4265L86.5044 40.8483Z" fill="white"/>
<path d="M85.4521 85.2935H99.3029C101.056 90.9916 103.072 97.3033 104.124 102.475C105.615 97.128 105.965 95.9884 109.735 85.2935H120.167L107.982 113.784C106.316 117.466 104.124 122.375 99.5659 125.268C95.0075 128.161 89.4847 128.161 85.4521 128.161V123.252C92.2022 122.813 94.4815 118.868 97.2867 113.872L85.4521 85.2935Z" fill="white"/>
<path d="M28.471 77.4038H15.3215V116.414H28.471V112.294C29.6983 114.047 32.0652 117.291 37.851 117.291C46.5296 117.291 51.1758 109.752 51.1758 100.898C51.1758 91.8682 46.5296 83.7156 37.6756 83.7156C32.1528 83.7156 29.9613 86.4331 28.471 88.1864V77.4038ZM28.471 93.6215C29.5229 92.9202 30.4872 92.3066 32.0652 92.3066C35.1334 92.3066 37.588 95.1995 37.588 100.722C37.588 105.105 35.8347 108.524 32.1528 108.524C30.5749 108.524 29.6106 107.998 28.471 107.297V93.6215Z" fill="white"/>
<path fill-rule="evenodd" clip-rule="evenodd" d="M70.1232 83.7362C49.5468 83.7362 45.981 116.705 70.1232 116.705C92.5703 116.705 92.278 83.7362 70.1232 83.7362ZM70.4228 90.8068C76.0402 90.8068 76.5571 109.48 70.4228 109.48C62.8692 109.48 64.1986 90.8068 70.4228 90.8068Z" fill="white"/>
</svg>
