<svg width="219" height="153" viewBox="0 0 219 153" fill="none" xmlns="http://www.w3.org/2000/svg">
<path d="M141.103 37.5364L120.416 134.862C120.208 135.84 121.186 136.048 122.654 136.36L159.823 144.261C173.028 147.067 181.893 143.84 182.725 139.927L202.164 48.4706C202.279 47.9304 201.948 47.4022 201.407 47.2874L144.172 35.1217C142.607 34.789 141.311 36.5582 141.103 37.5364Z" fill="#E0E4E9"/>
<path d="M138.098 99.7715L137.474 102.706C137.439 102.869 137.175 103.153 136.392 102.987L133.947 102.467C132.773 102.218 132.272 103.134 132.168 103.623L131.44 107.046C131.274 107.829 132.21 108.232 132.699 108.336L134.655 108.752C135.829 109.002 135.984 109.716 135.915 110.042L135.291 112.976C135.125 113.759 136.061 114.163 136.55 114.266L139.485 114.89C140.659 115.14 141.091 114.55 141.16 114.224L141.784 111.29C141.95 110.507 142.644 110.45 142.97 110.519L145.415 111.039C146.589 111.289 147.021 110.699 147.09 110.373L147.818 106.949C148.067 105.775 147.478 105.343 147.152 105.274L144.706 104.754C143.533 104.505 143.308 104.116 143.343 103.953L143.863 101.508C144.112 100.334 143.197 99.8329 142.707 99.7289L139.773 99.1052C138.599 98.8557 138.167 99.4454 138.098 99.7715Z" fill="#0E1116"/>
<path d="M194.54 54.5176L147.1 44.4338C145.144 44.018 144.378 45.2183 144.239 45.8704L136.962 80.1055C136.297 83.2356 138.087 84.4339 139.065 84.6418L179.658 93.2702C186.701 94.7671 189.57 89.9246 190.125 87.3162L196.57 56.9936C196.903 55.4286 195.355 54.6908 194.54 54.5176Z" fill="#0E1116"/>
<path d="M183.719 57.3292L153.396 50.884C153.126 50.8266 152.861 50.999 152.803 51.2691L147.086 78.1682C146.741 79.7888 147.776 81.3819 149.396 81.7263L177.274 87.6518C178.894 87.9963 180.487 86.9618 180.832 85.3411L186.03 60.8874C186.374 59.2668 185.34 57.6737 183.719 57.3292Z" fill="#E0E4E9"/>
<circle cx="170.67" cy="114.874" r="4" transform="rotate(12 170.67 114.874)" fill="#0E1116"/>
<circle cx="181.491" cy="112.062" r="4" transform="rotate(12 181.491 112.062)" fill="#0E1116"/>
<path d="M169.859 133.284L169.859 134.483C169.859 134.77 169.935 134.99 170.182 135.135C170.38 135.251 170.692 135.322 170.91 135.252C175.753 133.693 184.87 130.701 185.148 130.376C185.504 129.961 185.859 128.714 185.859 127.883C185.859 127.218 185.148 127.329 184.793 127.468C180.526 128.852 171.779 131.705 170.926 132.037C170.072 132.37 169.859 133.007 169.859 133.284Z" fill="#0E1116"/>
<path d="M150.859 127.724C150.859 129.374 151.627 133.121 152.118 135.974C152.201 136.458 152.603 136.716 153.039 136.489C154.497 135.729 157.446 133.906 158.553 133.906C159.85 133.906 162.342 136.075 164.162 137.901C164.745 138.486 165.765 138.191 165.825 137.367C165.98 135.28 165.548 134.218 165.548 131.361L165.548 129.145C165.548 128.363 164.692 127.883 164.021 128.282C161.956 129.509 159.342 130.997 158.903 130.997C158.204 130.997 152.958 128.451 151.909 127.724C151.069 127.142 150.859 127.482 150.859 127.724Z" fill="#0E1116"/>
<path fill-rule="evenodd" clip-rule="evenodd" d="M196.254 46.6448C196.449 39.7146 200.72 25.1206 216.413 17.0693C217.115 16.7093 217.907 17.2936 217.775 18.0713C216.214 27.3176 211.228 44.116 201.343 50.3673C201.217 50.4467 201.079 50.4928 200.938 50.5071L201.363 48.5085L196.759 47.5302L196.624 47.4226C196.385 47.2327 196.245 46.9495 196.254 46.6448ZM190.528 45.8769C181.869 41.6061 165.886 28.7113 168.661 10.2126C168.766 9.51603 169.549 9.17619 170.117 9.59231C179.077 16.1521 190.098 32.7129 195.054 45.3268C195.341 46.0561 194.696 46.7924 193.929 46.6296L190.755 45.9552C190.676 45.9382 190.601 45.9131 190.528 45.8769Z" fill="#E0E4E9"/>
<path d="M13.9236 45.124C15.5016 43.1077 17.6932 40.2148 23.216 40.2148C31.8946 40.2148 36.5408 47.9292 36.5408 56.6079C36.5408 66.7768 30.755 73.6146 22.7776 73.6146C17.4302 73.6146 15.0633 70.634 13.9236 69.2314V80.277H0.861816V41.0038H13.9236V45.124ZM13.9236 63.7963C14.7126 64.3222 15.6769 65.1112 17.4302 65.1112C19.9724 65.1112 22.953 63.095 22.953 56.9585C22.953 52.663 21.5504 48.8935 17.5178 48.8935C16.1152 48.8935 15.1509 49.4195 13.9236 50.1208V63.7963Z" fill="#E0E4E9"/>
<path d="M38.9077 32.8511H52.0572V72.2119H38.9077V32.8511Z" fill="#E0E4E9"/>
<path d="M87.6484 72.2118H74.4989V68.0917C72.921 70.1956 70.5541 73.1761 64.856 73.1761C58.2812 73.1761 54.5117 68.53 54.5117 62.9195C54.5117 55.9941 60.0345 52.137 66.8722 52.137C70.2911 52.137 72.7457 52.9259 74.4989 53.5396C74.4989 51.6986 74.4113 49.1564 72.2197 47.3155C70.6418 46.0005 68.8885 45.9129 68.0119 45.9129C63.9794 45.9129 61.7001 48.2798 60.0345 49.9454L56.1773 46.7018C58.9825 43.546 63.0151 39.4258 72.2197 39.4258C78.4438 39.4258 81.3367 41.2667 82.3886 41.968C87.5608 45.2992 87.6484 49.9454 87.6484 53.3642V72.2118ZM74.5866 58.887C73.5346 58.624 72.8333 58.4487 71.6937 58.4487C68.1872 58.4487 67.2229 60.728 67.2229 62.3059C67.2229 64.0592 68.4502 65.6371 70.5541 65.6371C72.395 65.6371 73.5346 64.5851 74.5866 63.4455V58.887Z" fill="#E0E4E9"/>
<path d="M86.9473 41.0038H100.798C102.551 46.7019 104.568 53.0137 105.62 58.1858C107.11 52.8383 107.46 51.6987 111.23 41.0038H121.662L109.477 69.4943C107.811 73.1762 105.62 78.0854 101.061 80.9782C96.5026 83.8711 90.9798 83.8711 86.9473 83.8711V78.962C93.6973 78.5237 95.9766 74.5788 98.7818 69.582L86.9473 41.0038Z" fill="#E0E4E9"/>
<path d="M85.895 85.4491H99.7458C101.499 91.1472 103.515 97.459 104.567 102.631C106.058 97.2836 106.408 96.144 110.178 85.4491H120.61L108.424 113.94C106.759 117.622 104.567 122.531 100.009 125.424C95.4503 128.316 89.9275 128.316 85.895 128.316V123.407C92.6451 122.969 94.9243 119.024 97.7296 114.027L85.895 85.4491Z" fill="#E0E4E9"/>
<path d="M28.9139 77.5593H15.7644V116.569H28.9139V112.449C30.1411 114.203 32.508 117.446 38.2938 117.446C46.9725 117.446 51.6187 109.907 51.6187 101.053C51.6187 92.0238 46.9725 83.8711 38.1185 83.8711C32.5957 83.8711 30.4041 86.5886 28.9139 88.3419V77.5593ZM28.9139 93.777C29.9658 93.0757 30.9301 92.4621 32.5081 92.4621C35.5763 92.4621 38.0308 95.355 38.0308 100.878C38.0308 105.261 36.2776 108.68 32.5957 108.68C31.0178 108.68 30.0535 108.154 28.9139 107.453V93.777Z" fill="#E0E4E9"/>
<path fill-rule="evenodd" clip-rule="evenodd" d="M75.2932 103.671L87.1416 103.671L87.1435 103.671H87.8235C87.8235 99.6385 87.8235 91.2228 80.2844 86.5767C78.0929 85.1741 74.8493 83.9468 70.5538 83.9468C60.2095 83.9468 53.4595 90.9598 53.4595 100.866C53.4595 101.829 53.5247 102.765 53.6531 103.671L66.0094 103.671C65.8257 103.01 65.9874 99.215 66.0988 97.2716H66.083C66.346 95.08 66.872 90.9598 70.7291 90.9598C74.739 90.9598 75.0954 95.1114 75.1925 97.1115C75.2158 97.1405 75.2324 97.1712 75.2417 97.2038C75.5023 98.1161 75.3849 101.889 75.2932 103.671ZM75.2818 103.681C75.2854 103.681 75.2891 103.681 75.2927 103.681C75.2928 103.677 75.293 103.674 75.2932 103.671H87.8232C86.292 111.54 79.8986 116.821 70.7457 116.821C66.3655 116.821 63.058 115.593 60.8232 114.191C56.2737 111.441 54.4166 107.371 53.6585 103.671L66.0094 103.671C66.0121 103.681 66.0149 103.69 66.0177 103.698C66.1198 105.714 66.5066 109.807 70.5669 109.807C74.3917 109.807 75.0043 105.911 75.2818 103.681Z" fill="#E0E4E9"/>
</svg>
