<svg width="218" height="154" viewBox="0 0 218 154" fill="none" xmlns="http://www.w3.org/2000/svg">
<path d="M140.241 37.9486L119.554 135.274C119.346 136.252 120.325 136.46 121.792 136.772L158.961 144.673C172.166 147.48 181.031 144.252 181.863 140.34L201.302 48.8828C201.417 48.3426 201.086 47.8144 200.546 47.6996L143.311 35.5339C141.746 35.2013 140.449 36.9705 140.241 37.9486Z" fill="black"/>
<path d="M137.236 100.184L136.612 103.118C136.578 103.281 136.313 103.566 135.53 103.399L133.085 102.88C131.911 102.63 131.41 103.546 131.306 104.035L130.578 107.458C130.412 108.241 131.348 108.645 131.837 108.748L133.794 109.164C134.967 109.414 135.122 110.128 135.053 110.454L134.429 113.389C134.263 114.171 135.199 114.575 135.689 114.679L138.623 115.303C139.797 115.552 140.229 114.962 140.298 114.636L140.922 111.702C141.088 110.919 141.782 110.862 142.108 110.932L144.553 111.451C145.727 111.701 146.159 111.111 146.228 110.785L146.956 107.362C147.206 106.188 146.616 105.756 146.29 105.686L143.844 105.167C142.671 104.917 142.447 104.529 142.481 104.366L143.001 101.92C143.25 100.747 142.335 100.245 141.846 100.141L138.911 99.5175C137.737 99.268 137.305 99.8577 137.236 100.184Z" fill="white"/>
<path d="M193.678 54.9299L146.238 44.8461C144.282 44.4303 143.516 45.6306 143.377 46.2826L136.1 80.5178C135.435 83.6479 137.225 84.8462 138.203 85.0541L178.796 93.6825C185.839 95.1794 188.708 90.3369 189.263 87.7285L195.708 57.4059C196.041 55.8409 194.494 55.1031 193.678 54.9299Z" fill="white"/>
<path d="M182.857 57.7414L152.534 51.2962C152.264 51.2387 151.999 51.4112 151.941 51.6813L146.224 78.5803C145.879 80.201 146.914 81.794 148.535 82.1385L176.412 88.064C178.032 88.4085 179.625 87.3739 179.97 85.7533L185.168 61.2996C185.512 59.6789 184.478 58.0859 182.857 57.7414Z" fill="black"/>
<circle cx="169.808" cy="115.286" r="4" transform="rotate(12 169.808 115.286)" fill="white"/>
<circle cx="180.629" cy="112.474" r="4" transform="rotate(12 180.629 112.474)" fill="white"/>
<path d="M168.997 133.696L168.997 134.895C168.997 135.182 169.073 135.403 169.32 135.547C169.518 135.663 169.83 135.735 170.049 135.664C174.891 134.106 184.008 131.113 184.286 130.789C184.642 130.373 184.997 129.127 184.998 128.295C184.998 127.631 184.286 127.741 183.931 127.88C179.664 129.265 170.917 132.117 170.064 132.45C169.211 132.782 168.997 133.419 168.997 133.696Z" fill="white"/>
<path d="M149.998 128.136C149.998 129.786 150.765 133.533 151.256 136.386C151.339 136.871 151.742 137.128 152.177 136.901C153.636 136.141 156.584 134.318 157.692 134.319C158.988 134.319 161.48 136.488 163.3 138.313C163.883 138.899 164.903 138.603 164.964 137.779C165.118 135.692 164.686 134.63 164.686 131.774L164.687 129.557C164.687 128.776 163.83 128.295 163.159 128.694C161.094 129.921 158.48 131.41 158.041 131.409C157.342 131.409 152.096 128.864 151.047 128.136C150.208 127.554 149.998 127.894 149.998 128.136Z" fill="white"/>
<path fill-rule="evenodd" clip-rule="evenodd" d="M195.392 47.0571C195.588 40.1269 199.859 25.5329 215.551 17.4816C216.253 17.1216 217.045 17.7059 216.914 18.4836C215.352 27.7299 210.367 44.5283 200.481 50.7796C200.356 50.859 200.217 50.9051 200.076 50.9194L200.501 48.9208L195.897 47.9425L195.762 47.8349C195.524 47.6449 195.383 47.3618 195.392 47.0571ZM189.666 46.2892C181.007 42.0184 165.024 29.1236 167.799 10.6249C167.904 9.92833 168.687 9.58848 169.256 10.0046C178.216 16.5644 189.236 33.1251 194.193 45.7391C194.479 46.4684 193.834 47.2047 193.068 47.0419L189.894 46.3675C189.814 46.3505 189.739 46.3254 189.666 46.2892Z" fill="black"/>
<path d="M13.0618 45.5363C14.6398 43.5201 16.8313 40.6272 22.3541 40.6272C31.0328 40.6272 35.679 48.3416 35.679 57.0202C35.679 67.1892 29.8932 74.0269 21.9158 74.0269C16.5684 74.0269 14.2015 71.0464 13.0618 69.6437V80.6893H0V41.4162H13.0618V45.5363ZM13.0618 64.2086C13.8508 64.7346 14.8151 65.5236 16.5684 65.5236C19.1106 65.5236 22.0911 63.5073 22.0911 57.3709C22.0911 53.0754 20.6885 49.3059 16.656 49.3059C15.2534 49.3059 14.2891 49.8318 13.0618 50.5331V64.2086Z" fill="black"/>
<path d="M38.0459 33.2635H51.1954V72.6243H38.0459V33.2635Z" fill="black"/>
<path d="M86.7866 72.6243H73.6371V68.5042C72.0592 70.6081 69.6923 73.5886 63.9942 73.5886C57.4194 73.5886 53.6499 68.9425 53.6499 63.332C53.6499 56.4066 59.1727 52.5494 66.0104 52.5494C69.4293 52.5494 71.8839 53.3384 73.6371 53.952C73.6371 52.1111 73.5495 49.5689 71.3579 47.728C69.7799 46.413 68.0267 46.3253 67.15 46.3253C63.1175 46.3253 60.8383 48.6922 59.1727 50.3579L55.3155 47.1143C58.1207 43.9584 62.1532 39.8383 71.3579 39.8383C77.582 39.8383 80.4749 41.6792 81.5268 42.3805C86.699 45.7117 86.7866 50.3579 86.7866 53.7767V72.6243ZM73.7248 59.2995C72.6728 59.0365 71.9715 58.8612 70.8319 58.8612C67.3254 58.8612 66.3611 61.1404 66.3611 62.7184C66.3611 64.4716 67.5884 66.0496 69.6923 66.0496C71.5332 66.0496 72.6728 64.9976 73.7248 63.858V59.2995Z" fill="black"/>
<path d="M86.0854 41.4161H99.9363C101.69 47.1143 103.706 53.426 104.758 58.5981C106.248 53.2507 106.599 52.1111 110.368 41.4161H120.8L108.615 69.9067C106.949 73.5886 104.758 78.4977 100.199 81.3906C95.6408 84.2835 90.118 84.2835 86.0854 84.2835V79.3743C92.8355 78.936 95.1148 74.9912 97.92 69.9944L86.0854 41.4161Z" fill="black"/>
<path d="M85.0332 85.8615H98.884C100.637 91.5596 102.654 97.8713 103.705 103.043C105.196 97.696 105.546 96.5564 109.316 85.8615H119.748L107.563 114.352C105.897 118.034 103.705 122.943 99.147 125.836C94.5885 128.729 89.0657 128.729 85.0332 128.729V123.82C91.7833 123.381 94.0625 119.436 96.8677 114.44L85.0332 85.8615Z" fill="black"/>
<path d="M28.052 77.9717H14.9026V116.982H28.052V112.862C29.2793 114.615 31.6462 117.859 37.432 117.859C46.1107 117.859 50.7568 110.319 50.7568 101.465C50.7568 92.4362 46.1107 84.2835 37.2567 84.2835C31.7339 84.2835 29.5423 87.0011 28.052 88.7543V77.9717ZM28.052 94.1894C29.104 93.4881 30.0683 92.8745 31.6462 92.8745C34.7145 92.8745 37.169 95.7674 37.169 101.29C37.169 105.673 35.4158 109.092 31.7339 109.092C30.156 109.092 29.1917 108.566 28.052 107.865V94.1894Z" fill="black"/>
<path fill-rule="evenodd" clip-rule="evenodd" d="M74.4314 104.083L86.2798 104.083L86.2817 104.083H86.9617C86.9617 100.051 86.9617 91.6352 79.4226 86.989C77.231 85.5864 73.9875 84.3591 69.692 84.3591C59.3477 84.3591 52.5977 91.3722 52.5977 101.278C52.5977 102.241 52.6629 103.178 52.7912 104.083L65.1476 104.083C64.9639 103.423 65.1256 99.6274 65.237 97.6839H65.2212C65.4842 95.4924 66.0101 91.3722 69.8673 91.3722C73.8772 91.3722 74.2336 95.5237 74.3306 97.5238C74.354 97.5528 74.3705 97.5836 74.3799 97.6162C74.6405 98.5284 74.5231 102.301 74.4314 104.083ZM74.42 104.094C74.4236 104.093 74.4272 104.093 74.4309 104.093C74.431 104.09 74.4312 104.087 74.4313 104.083H86.9614C85.4302 111.952 79.0368 117.233 69.8839 117.233C65.5037 117.233 62.1962 116.006 59.9614 114.603C55.4119 111.853 53.5547 107.784 52.7967 104.083L65.1476 104.083C65.1503 104.093 65.1531 104.102 65.1559 104.11C65.258 106.126 65.6447 110.22 69.7051 110.22C73.5299 110.22 74.1425 106.324 74.42 104.094Z" fill="black"/>
</svg>
