<svg width="218" height="154" viewBox="0 0 218 154" fill="none" xmlns="http://www.w3.org/2000/svg">
<path d="M140.241 37.8938L119.554 135.219C119.346 136.198 120.325 136.406 121.792 136.717L158.961 144.618C172.166 147.425 181.031 144.197 181.863 140.285L201.302 48.828C201.417 48.2878 201.086 47.7596 200.546 47.6448L143.311 35.4791C141.746 35.1465 140.449 36.9156 140.241 37.8938Z" fill="#E0E4E9"/>
<path d="M137.236 100.129L136.612 103.063C136.578 103.226 136.313 103.511 135.53 103.345L133.085 102.825C131.911 102.575 131.41 103.491 131.306 103.98L130.578 107.404C130.412 108.186 131.348 108.59 131.837 108.694L133.794 109.109C134.967 109.359 135.122 110.073 135.053 110.399L134.429 113.334C134.263 114.116 135.199 114.52 135.689 114.624L138.623 115.248C139.797 115.497 140.229 114.907 140.298 114.581L140.922 111.647C141.088 110.864 141.782 110.807 142.108 110.877L144.553 111.396C145.727 111.646 146.159 111.056 146.228 110.73L146.956 107.307C147.206 106.133 146.616 105.701 146.29 105.632L143.844 105.112C142.671 104.862 142.447 104.474 142.481 104.311L143.001 101.865C143.25 100.692 142.335 100.19 141.846 100.086L138.911 99.4626C137.737 99.2131 137.305 99.8029 137.236 100.129Z" fill="black"/>
<path d="M193.678 54.875L146.238 44.7913C144.282 44.3754 143.516 45.5757 143.377 46.2278L136.1 80.4629C135.435 83.593 137.225 84.7914 138.203 84.9993L178.796 93.6276C185.839 95.1246 188.708 90.282 189.263 87.6736L195.708 57.3511C196.041 55.786 194.494 55.0482 193.678 54.875Z" fill="black"/>
<path d="M182.857 57.6867L152.534 51.2414C152.264 51.184 151.999 51.3564 151.941 51.6265L146.224 78.5256C145.879 80.1462 146.914 81.7393 148.535 82.0838L176.412 88.0092C178.032 88.3537 179.625 87.3192 179.97 85.6985L185.168 61.2448C185.512 59.6242 184.478 58.0311 182.857 57.6867Z" fill="#E0E4E9"/>
<circle cx="169.808" cy="115.231" r="4" transform="rotate(12 169.808 115.231)" fill="black"/>
<circle cx="180.629" cy="112.419" r="4" transform="rotate(12 180.629 112.419)" fill="black"/>
<path d="M168.997 133.641L168.997 134.84C168.997 135.127 169.073 135.348 169.32 135.492C169.518 135.608 169.83 135.68 170.049 135.61C174.891 134.051 184.008 131.058 184.286 130.734C184.642 130.318 184.997 129.072 184.998 128.241C184.998 127.576 184.286 127.687 183.931 127.825C179.664 129.21 170.917 132.063 170.064 132.395C169.211 132.727 168.997 133.364 168.997 133.641Z" fill="black"/>
<path d="M149.998 128.081C149.998 129.732 150.765 133.478 151.256 136.332C151.339 136.816 151.742 137.073 152.177 136.846C153.636 136.086 156.584 134.264 157.692 134.264C158.988 134.264 161.48 136.433 163.3 138.258C163.883 138.844 164.903 138.548 164.964 137.724C165.118 135.637 164.686 134.576 164.686 131.719L164.687 129.502C164.687 128.721 163.83 128.24 163.159 128.639C161.094 129.867 158.48 131.355 158.041 131.355C157.342 131.355 152.096 128.809 151.047 128.081C150.208 127.5 149.998 127.839 149.998 128.081Z" fill="black"/>
<path fill-rule="evenodd" clip-rule="evenodd" d="M195.392 47.0022C195.588 40.072 199.859 25.478 215.551 17.4268C216.253 17.0667 217.045 17.651 216.914 18.4288C215.352 27.675 210.367 44.4735 200.481 50.7247C200.356 50.8041 200.217 50.8502 200.076 50.8646L200.501 48.866L195.897 47.8876L195.762 47.7801C195.524 47.5901 195.383 47.3069 195.392 47.0022ZM189.666 46.2343C181.007 41.9635 165.024 29.0687 167.799 10.5701C167.904 9.87345 168.687 9.53361 169.256 9.94973C178.216 16.5095 189.236 33.0703 194.193 45.6842C194.479 46.4135 193.834 47.1499 193.068 46.987L189.894 46.3126C189.814 46.2956 189.739 46.2705 189.666 46.2343Z" fill="#E0E4E9"/>
<path d="M13.0618 45.4775C14.6398 43.4612 16.8313 40.5684 22.3541 40.5684C31.0328 40.5684 35.679 48.2827 35.679 56.9614C35.679 67.1303 29.8932 73.9681 21.9158 73.9681C16.5684 73.9681 14.2015 70.9875 13.0618 69.5849V80.6305H0V41.3573H13.0618V45.4775ZM13.0618 64.1498C13.8508 64.6758 14.8151 65.4647 16.5684 65.4647C19.1106 65.4647 22.0911 63.4485 22.0911 57.312C22.0911 53.0165 20.6885 49.247 16.656 49.247C15.2534 49.247 14.2891 49.773 13.0618 50.4743V64.1498Z" fill="#E0E4E9"/>
<path d="M38.0459 33.2046H51.1954V72.5654H38.0459V33.2046Z" fill="#E0E4E9"/>
<path d="M86.7866 72.5654H73.6371V68.4452C72.0592 70.5491 69.6923 73.5297 63.9942 73.5297C57.4194 73.5297 53.6499 68.8835 53.6499 63.2731C53.6499 56.3477 59.1727 52.4905 66.0104 52.4905C69.4293 52.4905 71.8839 53.2794 73.6371 53.8931C73.6371 52.0522 73.5495 49.5099 71.3579 47.669C69.7799 46.354 68.0267 46.2664 67.15 46.2664C63.1175 46.2664 60.8383 48.6333 59.1727 50.2989L55.3155 47.0553C58.1207 43.8995 62.1532 39.7793 71.3579 39.7793C77.582 39.7793 80.4749 41.6202 81.5268 42.3215C86.699 45.6527 86.7866 50.2989 86.7866 53.7178V72.5654ZM73.7248 59.2405C72.6728 58.9776 71.9715 58.8022 70.8319 58.8022C67.3254 58.8022 66.3611 61.0815 66.3611 62.6594C66.3611 64.4127 67.5884 65.9906 69.6923 65.9906C71.5332 65.9906 72.6728 64.9387 73.7248 63.799V59.2405Z" fill="#E0E4E9"/>
<path d="M86.0854 41.3573H99.9363C101.69 47.0554 103.706 53.3672 104.758 58.5393C106.248 53.1918 106.599 52.0522 110.368 41.3573H120.8L108.615 69.8479C106.949 73.5297 104.758 78.4389 100.199 81.3318C95.6408 84.2246 90.118 84.2246 86.0854 84.2246V79.3155C92.8355 78.8772 95.1148 74.9323 97.92 69.9355L86.0854 41.3573Z" fill="#E0E4E9"/>
<path d="M85.0332 85.8025H98.884C100.637 91.5006 102.654 97.8124 103.705 102.984C105.196 97.637 105.546 96.4974 109.316 85.8025H119.748L107.563 114.293C105.897 117.975 103.705 122.884 99.147 125.777C94.5885 128.67 89.0657 128.67 85.0332 128.67V123.761C91.7833 123.322 94.0625 119.378 96.8677 114.381L85.0332 85.8025Z" fill="#E0E4E9"/>
<path d="M28.052 77.9128H14.9026V116.923H28.052V112.803C29.2793 114.556 31.6462 117.8 37.432 117.8C46.1107 117.8 50.7568 110.261 50.7568 101.407C50.7568 92.3773 46.1107 84.2246 37.2567 84.2246C31.7339 84.2246 29.5423 86.9422 28.052 88.6954V77.9128ZM28.052 94.1305C29.104 93.4292 30.0683 92.8156 31.6462 92.8156C34.7145 92.8156 37.169 95.7085 37.169 101.231C37.169 105.614 35.4158 109.033 31.7339 109.033C30.156 109.033 29.1917 108.507 28.052 107.806V94.1305Z" fill="#E0E4E9"/>
<path fill-rule="evenodd" clip-rule="evenodd" d="M69.7043 84.2452C49.1279 84.2452 45.562 117.214 69.7043 117.214C92.1513 117.214 91.8591 84.2452 69.7043 84.2452ZM70.0039 91.3159C75.6212 91.3159 76.1382 109.989 70.0039 109.989C62.4503 109.989 63.7796 91.3159 70.0039 91.3159Z" fill="#E0E4E9"/>
</svg>
