<svg width="218" height="153" viewBox="0 0 218 153" fill="none" xmlns="http://www.w3.org/2000/svg">
<path d="M140.241 37.233L119.554 134.559C119.346 135.537 120.325 135.745 121.792 136.057L158.961 143.957C172.166 146.764 181.031 143.537 181.863 139.624L201.302 48.1673C201.417 47.627 201.086 47.0988 200.546 46.984L143.311 34.8184C141.746 34.4857 140.449 36.2549 140.241 37.233Z" fill="black"/>
<path d="M137.236 99.4682L136.612 102.403C136.578 102.566 136.313 102.85 135.53 102.684L133.085 102.164C131.911 101.915 131.41 102.83 131.306 103.319L130.578 106.743C130.412 107.525 131.348 107.929 131.837 108.033L133.794 108.449C134.967 108.698 135.122 109.413 135.053 109.739L134.429 112.673C134.263 113.456 135.199 113.859 135.689 113.963L138.623 114.587C139.797 114.836 140.229 114.247 140.298 113.921L140.922 110.986C141.088 110.204 141.782 110.147 142.108 110.216L144.553 110.736C145.727 110.985 146.159 110.396 146.228 110.069L146.956 106.646C147.206 105.472 146.616 105.04 146.29 104.971L143.844 104.451C142.671 104.202 142.447 103.813 142.481 103.65L143.001 101.205C143.25 100.031 142.335 99.5296 141.846 99.4257L138.911 98.8019C137.737 98.5524 137.305 99.1422 137.236 99.4682Z" fill="white"/>
<path d="M193.678 54.2143L146.238 44.1306C144.282 43.7147 143.516 44.915 143.377 45.5671L136.1 79.8022C135.435 82.9323 137.225 84.1306 138.203 84.3386L178.796 92.9669C185.839 94.4639 188.708 89.6213 189.263 87.0129L195.708 56.6903C196.041 55.1253 194.494 54.3875 193.678 54.2143Z" fill="white"/>
<path d="M182.857 57.0258L152.534 50.5806C152.264 50.5232 151.999 50.6956 151.941 50.9657L146.224 77.8648C145.879 79.4854 146.914 81.0785 148.535 81.4229L176.412 87.3484C178.032 87.6929 179.625 86.6584 179.97 85.0377L185.168 60.584C185.512 58.9634 184.478 57.3703 182.857 57.0258Z" fill="black"/>
<circle cx="169.808" cy="114.57" r="4" transform="rotate(12 169.808 114.57)" fill="white"/>
<circle cx="180.629" cy="111.759" r="4" transform="rotate(12 180.629 111.759)" fill="white"/>
<path d="M168.997 132.981L168.997 134.179C168.997 134.466 169.073 134.687 169.32 134.832C169.518 134.947 169.83 135.019 170.049 134.949C174.891 133.39 184.008 130.398 184.286 130.073C184.642 129.657 184.997 128.411 184.998 127.58C184.998 126.915 184.286 127.026 183.931 127.164C179.664 128.549 170.917 131.402 170.064 131.734C169.211 132.066 168.997 132.704 168.997 132.981Z" fill="white"/>
<path d="M149.998 127.421C149.998 129.071 150.765 132.818 151.256 135.671C151.339 136.155 151.742 136.412 152.177 136.185C153.636 135.426 156.584 133.603 157.692 133.603C158.988 133.603 161.48 135.772 163.3 137.597C163.883 138.183 164.903 137.888 164.964 137.063C165.118 134.976 164.686 133.915 164.686 131.058L164.687 128.841C164.687 128.06 163.83 127.579 163.159 127.978C161.094 129.206 158.48 130.694 158.041 130.694C157.342 130.694 152.096 128.148 151.047 127.421C150.208 126.839 149.998 127.178 149.998 127.421Z" fill="white"/>
<path fill-rule="evenodd" clip-rule="evenodd" d="M195.392 46.3415C195.588 39.4113 199.859 24.8173 215.551 16.7661C216.253 16.406 217.045 16.9903 216.914 17.7681C215.352 27.0143 210.367 43.8128 200.481 50.064C200.356 50.1434 200.217 50.1895 200.076 50.2039L200.501 48.2052L195.897 47.2269L195.762 47.1194C195.524 46.9294 195.383 46.6462 195.392 46.3415ZM189.666 45.5736C181.007 41.3028 165.024 28.408 167.799 9.90937C167.904 9.21275 168.687 8.87291 169.256 9.28903C178.216 15.8488 189.236 32.4096 194.193 45.0235C194.479 45.7528 193.834 46.4892 193.068 46.3263L189.894 45.6519C189.814 45.6349 189.739 45.6098 189.666 45.5736Z" fill="black"/>
<path d="M13.0618 44.8167C14.6398 42.8005 16.8313 39.9076 22.3541 39.9076C31.0328 39.9076 35.679 47.622 35.679 56.3006C35.679 66.4696 29.8932 73.3073 21.9158 73.3073C16.5684 73.3073 14.2015 70.3267 13.0618 68.9241V79.9697H0V40.6966H13.0618V44.8167ZM13.0618 63.489C13.8508 64.015 14.8151 64.804 16.5684 64.804C19.1106 64.804 22.0911 62.7877 22.0911 56.6513C22.0911 52.3558 20.6885 48.5863 16.656 48.5863C15.2534 48.5863 14.2891 49.1122 13.0618 49.8135V63.489Z" fill="black"/>
<path d="M38.0459 32.5438H51.1954V71.9046H38.0459V32.5438Z" fill="black"/>
<path d="M86.7866 71.9046H73.6371V67.7844C72.0592 69.8883 69.6923 72.8689 63.9942 72.8689C57.4194 72.8689 53.6499 68.2227 53.6499 62.6123C53.6499 55.6869 59.1727 51.8297 66.0104 51.8297C69.4293 51.8297 71.8839 52.6187 73.6371 53.2323C73.6371 51.3914 73.5495 48.8492 71.3579 47.0082C69.7799 45.6933 68.0267 45.6056 67.15 45.6056C63.1175 45.6056 60.8383 47.9725 59.1727 49.6381L55.3155 46.3946C58.1207 43.2387 62.1532 39.1185 71.3579 39.1185C77.582 39.1185 80.4749 40.9595 81.5268 41.6608C86.699 44.992 86.7866 49.6381 86.7866 53.057V71.9046ZM73.7248 58.5798C72.6728 58.3168 71.9715 58.1415 70.8319 58.1415C67.3254 58.1415 66.3611 60.4207 66.3611 61.9986C66.3611 63.7519 67.5884 65.3299 69.6923 65.3299C71.5332 65.3299 72.6728 64.2779 73.7248 63.1383V58.5798Z" fill="black"/>
<path d="M86.0854 40.6965H99.9363C101.69 46.3946 103.706 52.7064 104.758 57.8785C106.248 52.5311 106.599 51.3915 110.368 40.6965H120.8L108.615 69.1871C106.949 72.869 104.758 77.7781 100.199 80.671C95.6408 83.5639 90.118 83.5639 86.0854 83.5639V78.6547C92.8355 78.2164 95.1148 74.2716 97.92 69.2748L86.0854 40.6965Z" fill="black"/>
<path d="M85.0332 85.1418H98.884C100.637 90.8399 102.654 97.1517 103.705 102.324C105.196 96.9763 105.546 95.8367 109.316 85.1418H119.748L107.563 113.632C105.897 117.314 103.705 122.223 99.147 125.116C94.5885 128.009 89.0657 128.009 85.0332 128.009V123.1C91.7833 122.662 94.0625 118.717 96.8677 113.72L85.0332 85.1418Z" fill="black"/>
<path d="M28.052 77.2521H14.9026V116.262H28.052V112.142C29.2793 113.895 31.6462 117.139 37.432 117.139C46.1107 117.139 50.7568 109.6 50.7568 100.746C50.7568 91.7165 46.1107 83.5638 37.2567 83.5638C31.7339 83.5638 29.5423 86.2814 28.052 88.0347V77.2521ZM28.052 93.4698C29.104 92.7685 30.0683 92.1548 31.6462 92.1548C34.7145 92.1548 37.169 95.0477 37.169 100.571C37.169 104.954 35.4158 108.373 31.7339 108.373C30.156 108.373 29.1917 107.847 28.052 107.145V93.4698Z" fill="black"/>
<path fill-rule="evenodd" clip-rule="evenodd" d="M69.7043 83.5845C49.1279 83.5845 45.562 116.554 69.7043 116.554C92.1513 116.554 91.8591 83.5845 69.7043 83.5845ZM70.0039 90.6551C75.6212 90.6551 76.1382 109.328 70.0039 109.328C62.4503 109.328 63.7796 90.6551 70.0039 90.6551Z" fill="black"/>
</svg>
