<svg width="218" height="154" viewBox="0 0 218 154" fill="none" xmlns="http://www.w3.org/2000/svg">
<path d="M140.241 37.7424L119.554 135.068C119.346 136.046 120.325 136.254 121.792 136.566L158.961 144.467C172.166 147.273 181.031 144.046 181.863 140.133L201.302 48.6767C201.417 48.1364 201.086 47.6082 200.546 47.4934L143.311 35.3278C141.746 34.9951 140.449 36.7643 140.241 37.7424Z" fill="white"/>
<path d="M137.236 99.9775L136.612 102.912C136.578 103.075 136.313 103.359 135.53 103.193L133.085 102.673C131.911 102.424 131.41 103.34 131.306 103.829L130.578 107.252C130.412 108.035 131.348 108.438 131.837 108.542L133.794 108.958C134.967 109.208 135.122 109.922 135.053 110.248L134.429 113.183C134.263 113.965 135.199 114.369 135.689 114.473L138.623 115.096C139.797 115.346 140.229 114.756 140.298 114.43L140.922 111.496C141.088 110.713 141.782 110.656 142.108 110.725L144.553 111.245C145.727 111.495 146.159 110.905 146.228 110.579L146.956 107.155C147.206 105.982 146.616 105.549 146.29 105.48L143.844 104.96C142.671 104.711 142.447 104.322 142.481 104.159L143.001 101.714C143.25 100.54 142.335 100.039 141.846 99.935L138.911 99.3113C137.737 99.0618 137.305 99.6515 137.236 99.9775Z" fill="black"/>
<path d="M193.678 54.7236L146.238 44.6399C144.282 44.2241 143.516 45.4243 143.377 46.0764L136.1 80.3116C135.435 83.4416 137.225 84.64 138.203 84.8479L178.796 93.4762C185.839 94.9732 188.708 90.1307 189.263 87.5223L195.708 57.1997C196.041 55.6347 194.494 54.8969 193.678 54.7236Z" fill="black"/>
<path d="M182.857 57.5353L152.534 51.09C152.264 51.0326 151.999 51.205 151.941 51.4752L146.224 78.3742C145.879 79.9949 146.914 81.5879 148.535 81.9324L176.412 87.8579C178.032 88.2024 179.625 87.1678 179.97 85.5472L185.168 61.0935C185.512 59.4728 184.478 57.8798 182.857 57.5353Z" fill="white"/>
<circle cx="169.808" cy="115.08" r="4" transform="rotate(12 169.808 115.08)" fill="black"/>
<circle cx="180.629" cy="112.268" r="4" transform="rotate(12 180.629 112.268)" fill="black"/>
<path d="M168.997 133.49L168.997 134.689C168.997 134.976 169.073 135.196 169.32 135.341C169.518 135.457 169.83 135.528 170.049 135.458C174.891 133.899 184.008 130.907 184.286 130.582C184.642 130.167 184.997 128.92 184.998 128.089C184.998 127.424 184.286 127.535 183.931 127.674C179.664 129.058 170.917 131.911 170.064 132.244C169.211 132.576 168.997 133.213 168.997 133.49Z" fill="black"/>
<path d="M149.998 127.93C149.998 129.58 150.765 133.327 151.256 136.18C151.339 136.664 151.742 136.922 152.177 136.695C153.636 135.935 156.584 134.112 157.692 134.112C158.988 134.112 161.48 136.282 163.3 138.107C163.883 138.692 164.903 138.397 164.964 137.573C165.118 135.486 164.686 134.424 164.686 131.567L164.687 129.351C164.687 128.57 163.83 128.089 163.159 128.488C161.094 129.715 158.48 131.203 158.041 131.203C157.342 131.203 152.096 128.657 151.047 127.93C150.208 127.348 149.998 127.688 149.998 127.93Z" fill="black"/>
<path fill-rule="evenodd" clip-rule="evenodd" d="M195.392 46.8509C195.588 39.9207 199.859 25.3267 215.551 17.2755C216.253 16.9154 217.045 17.4997 216.914 18.2775C215.352 27.5237 210.367 44.3222 200.481 50.5734C200.356 50.6528 200.217 50.6989 200.076 50.7133L200.501 48.7146L195.897 47.7363L195.762 47.6288C195.524 47.4388 195.383 47.1556 195.392 46.8509ZM189.666 46.083C181.007 41.8122 165.024 28.9174 167.799 10.4188C167.904 9.72215 168.687 9.3823 169.256 9.79843C178.216 16.3582 189.236 32.919 194.193 45.5329C194.479 46.2622 193.834 46.9986 193.068 46.8357L189.894 46.1613C189.814 46.1443 189.739 46.1192 189.666 46.083Z" fill="white"/>
<path d="M13.0618 45.3302C14.6398 43.3139 16.8313 40.421 22.3541 40.421C31.0328 40.421 35.679 48.1354 35.679 56.8141C35.679 66.983 29.8932 73.8207 21.9158 73.8207C16.5684 73.8207 14.2015 70.8402 13.0618 69.4376V80.4831H0V41.21H13.0618V45.3302ZM13.0618 64.0024C13.8508 64.5284 14.8151 65.3174 16.5684 65.3174C19.1106 65.3174 22.0911 63.3011 22.0911 57.1647C22.0911 52.8692 20.6885 49.0997 16.656 49.0997C15.2534 49.0997 14.2891 49.6257 13.0618 50.327V64.0024Z" fill="white"/>
<path d="M38.0459 33.0573H51.1954V72.4181H38.0459V33.0573Z" fill="white"/>
<path d="M86.7866 72.418H73.6371V68.2979C72.0592 70.4018 69.6923 73.3823 63.9942 73.3823C57.4194 73.3823 53.6499 68.7362 53.6499 63.1257C53.6499 56.2003 59.1727 52.3431 66.0104 52.3431C69.4293 52.3431 71.8839 53.1321 73.6371 53.7457C73.6371 51.9048 73.5495 49.3626 71.3579 47.5217C69.7799 46.2067 68.0267 46.119 67.15 46.119C63.1175 46.119 60.8383 48.4859 59.1727 50.1516L55.3155 46.908C58.1207 43.7521 62.1532 39.632 71.3579 39.632C77.582 39.632 80.4749 41.4729 81.5268 42.1742C86.699 45.5054 86.7866 50.1516 86.7866 53.5704V72.418ZM73.7248 59.0932C72.6728 58.8302 71.9715 58.6549 70.8319 58.6549C67.3254 58.6549 66.3611 60.9341 66.3611 62.5121C66.3611 64.2653 67.5884 65.8433 69.6923 65.8433C71.5332 65.8433 72.6728 64.7913 73.7248 63.6517V59.0932Z" fill="white"/>
<path d="M86.0854 41.21H99.9363C101.69 46.9081 103.706 53.2198 104.758 58.392C106.248 53.0445 106.599 51.9049 110.368 41.21H120.8L108.615 69.7005C106.949 73.3824 104.758 78.2915 100.199 81.1844C95.6408 84.0773 90.118 84.0773 86.0854 84.0773V79.1682C92.8355 78.7298 95.1148 74.785 97.92 69.7882L86.0854 41.21Z" fill="white"/>
<path d="M85.0332 85.6553H98.884C100.637 91.3534 102.654 97.6651 103.705 102.837C105.196 97.4898 105.546 96.3502 109.316 85.6553H119.748L107.563 114.146C105.897 117.828 103.705 122.737 99.147 125.63C94.5885 128.523 89.0657 128.523 85.0332 128.523V123.613C91.7833 123.175 94.0625 119.23 96.8677 114.234L85.0332 85.6553Z" fill="white"/>
<path d="M28.052 77.7655H14.9026V116.776H28.052V112.655C29.2793 114.409 31.6462 117.652 37.432 117.652C46.1107 117.652 50.7568 110.113 50.7568 101.259C50.7568 92.2299 46.1107 84.0773 37.2567 84.0773C31.7339 84.0773 29.5423 86.7948 28.052 88.5481V77.7655ZM28.052 93.9832C29.104 93.2819 30.0683 92.6683 31.6462 92.6683C34.7145 92.6683 37.169 95.5611 37.169 101.084C37.169 105.467 35.4158 108.886 31.7339 108.886C30.156 108.886 29.1917 108.36 28.052 107.659V93.9832Z" fill="white"/>
<path fill-rule="evenodd" clip-rule="evenodd" d="M74.4314 103.877L86.2798 103.877L86.2817 103.877H86.9617C86.9617 99.8446 86.9617 91.4289 79.4226 86.7827C77.231 85.3801 73.9875 84.1528 69.692 84.1528C59.3477 84.1528 52.5977 91.1659 52.5977 101.072C52.5977 102.035 52.6629 102.971 52.7912 103.877L65.1476 103.877C64.9639 103.216 65.1256 99.4211 65.237 97.4776H65.2212C65.4842 95.2861 66.0101 91.1659 69.8673 91.1659C73.8772 91.1659 74.2336 95.3174 74.3306 97.3175C74.354 97.3465 74.3705 97.3773 74.3799 97.4099C74.6405 98.3221 74.5231 102.095 74.4314 103.877ZM74.42 103.887C74.4236 103.887 74.4272 103.887 74.4309 103.887C74.431 103.883 74.4312 103.88 74.4313 103.877H86.9614C85.4302 111.746 79.0368 117.027 69.8839 117.027C65.5037 117.027 62.1962 115.799 59.9614 114.397C55.4119 111.647 53.5547 107.577 52.7967 103.877L65.1476 103.877C65.1503 103.887 65.1531 103.896 65.1559 103.904C65.258 105.92 65.6447 110.014 69.7051 110.014C73.5299 110.014 74.1425 106.117 74.42 103.887Z" fill="white"/>
</svg>
